<svg class="svg-icon" style="width: 1em; height: 1em;vertical-align: middle;fill: currentColor;overflow: hidden;" viewBox="0 0 1024 1024" version="1.1" xmlns="http://www.w3.org/2000/svg"><path d="M632.746667 768h74.922666l72.832-72.832a42.666667 42.666667 0 0 1 60.330667 60.330667l-85.333333 85.333333A42.666667 42.666667 0 0 1 725.333333 853.333333h-92.586666a128.042667 128.042667 0 1 1 0-85.333333zM178.432 341.333333C216.96 192.810667 352.981333 85.333333 512 85.333333c159.018667 0 295.04 107.477333 333.525333 256H896a42.666667 42.666667 0 0 1 42.666667 42.666667v213.333333a42.666667 42.666667 0 0 1-42.666667 42.666667h-128a42.666667 42.666667 0 0 1-42.666667-42.666667V384a42.666667 42.666667 0 0 1 31.530667-41.216C721.536 241.962667 624.512 170.666667 512 170.666667S302.464 241.92 267.136 342.784A42.666667 42.666667 0 0 1 298.666667 384v213.333333a42.666667 42.666667 0 0 1-42.666667 42.666667H128a42.666667 42.666667 0 0 1-42.666667-42.666667V384a42.666667 42.666667 0 0 1 42.666667-42.666667h50.474667zM810.666667 426.666667v128h42.666666v-128h-42.666666zM170.666667 426.666667v128h42.666666v-128H170.666667z m341.333333 426.666666a42.666667 42.666667 0 1 0 0-85.333333 42.666667 42.666667 0 0 0 0 85.333333z"  /></svg>